<svg width="45" height="45" viewBox="0 0 45 45" fill="none" xmlns="http://www.w3.org/2000/svg">
<path d="M22.5 15H7.5C6.50544 15 5.55161 15.3951 4.84835 16.0984C4.14509 16.8016 3.75 17.7554 3.75 18.75V26.25C3.75 27.2446 4.14509 28.1984 4.84835 28.9016C5.55161 29.6049 6.50544 30 7.5 30H9.375V37.5C9.375 37.9973 9.57254 38.4742 9.92418 38.8258C10.2758 39.1775 10.7527 39.375 11.25 39.375H15C15.4973 39.375 15.9742 39.1775 16.3258 38.8258C16.6775 38.4742 16.875 37.9973 16.875 37.5V30H22.5L31.875 37.5V7.5L22.5 15ZM40.3125 22.5C40.3125 25.7063 38.5125 28.6125 35.625 30V15C38.4937 16.4062 40.3125 19.3125 40.3125 22.5Z" fill="#3D63DD"/>
</svg>
