<svg width="45" height="45" viewBox="0 0 45 45" fill="none" xmlns="http://www.w3.org/2000/svg">
<path d="M14.0625 40.7812V30.6745C16.6015 32.2303 19.5222 33.0515 22.5 33.0469C25.5924 33.0469 28.4808 32.1792 30.9375 30.6745V40.7812C30.9377 41.0303 30.8718 41.2749 30.7465 41.4901C30.6211 41.7053 30.4409 41.8833 30.2243 42.006C30.0076 42.1287 29.7622 42.1917 29.5132 42.1885C29.2642 42.1853 29.0205 42.1161 28.807 41.9878L22.5 38.2022L16.193 41.9878C15.9795 42.1161 15.7358 42.1853 15.4868 42.1885C15.2378 42.1917 14.9924 42.1287 14.7758 42.006C14.5591 41.8833 14.3789 41.7053 14.2536 41.4901C14.1282 41.2749 14.0623 41.0303 14.0625 40.7812ZM22.5 30.9375C25.5434 30.9416 28.5053 29.9543 30.9375 28.125C32.6848 26.8159 34.103 25.1175 35.0794 23.1647C36.0558 21.2119 36.5636 19.0583 36.5625 16.875C36.5625 9.10828 30.2667 2.8125 22.5 2.8125C14.7333 2.8125 8.43751 9.10828 8.43751 16.875C8.43532 19.0585 8.94265 21.2124 9.91915 23.1654C10.8956 25.1184 12.3144 26.8166 14.0625 28.125C16.4948 29.9543 19.4566 30.9416 22.5 30.9375ZM24.8569 13.9641L29.0799 14.5744C29.5116 14.6363 29.6845 15.1678 29.3709 15.4744L26.318 18.4486L27.0394 22.6533C27.0556 22.7501 27.0444 22.8495 27.0072 22.9404C26.97 23.0312 26.9081 23.1098 26.8286 23.1674C26.7491 23.225 26.6551 23.2592 26.5572 23.2663C26.4593 23.2733 26.3613 23.2529 26.2744 23.2073L22.5 21.2203L18.7256 23.2073C18.6386 23.2531 18.5405 23.2735 18.4424 23.2664C18.3443 23.2593 18.2502 23.2249 18.1706 23.1672C18.0911 23.1094 18.0293 23.0305 17.9921 22.9395C17.955 22.8484 17.9441 22.7488 17.9606 22.6519L18.6863 18.4472L15.6291 15.473C15.5589 15.4043 15.5093 15.3175 15.4858 15.2221C15.4623 15.1268 15.4659 15.0268 15.4961 14.9335C15.5264 14.8401 15.5821 14.757 15.657 14.6935C15.7319 14.6301 15.8231 14.5888 15.9202 14.5744L20.1431 13.9641L22.0275 10.1391C22.0711 10.051 22.1385 9.97694 22.222 9.92514C22.3055 9.87334 22.4018 9.84589 22.5 9.84589C22.5983 9.84589 22.6946 9.87334 22.778 9.92514C22.8615 9.97694 22.9289 10.051 22.9725 10.1391L24.8569 13.9641Z" fill="black"/>
</svg>
