<svg width="45" height="45" viewBox="0 0 45 45" fill="none" xmlns="http://www.w3.org/2000/svg">
<path d="M22.5 4.21875C12.4198 4.21875 4.21875 12.4198 4.21875 22.5C4.21875 32.5802 12.4198 40.7812 22.5 40.7812C32.5802 40.7812 40.7812 32.5802 40.7812 22.5C40.7812 12.4198 32.5802 4.21875 22.5 4.21875ZM32.0142 16.3731L20.2017 30.4356C20.0721 30.59 19.9109 30.7147 19.7289 30.8013C19.5469 30.8878 19.3485 30.9343 19.147 30.9375H19.1232C18.9261 30.9374 18.7312 30.8959 18.5512 30.8157C18.3712 30.7354 18.21 30.6182 18.0782 30.4717L13.0157 24.8467C12.8872 24.7103 12.7871 24.5496 12.7216 24.3741C12.656 24.1985 12.6262 24.0116 12.6338 23.8243C12.6415 23.6371 12.6866 23.4532 12.7663 23.2836C12.8461 23.114 12.9589 22.9621 13.0982 22.8367C13.2375 22.7113 13.4005 22.6151 13.5776 22.5536C13.7546 22.4921 13.9421 22.4666 14.1292 22.4786C14.3162 22.4907 14.499 22.54 14.6667 22.6236C14.8344 22.7073 14.9837 22.8236 15.1058 22.9658L19.0863 27.3885L29.8608 14.5644C30.1025 14.2849 30.4445 14.1118 30.8127 14.0825C31.181 14.0531 31.546 14.1699 31.8289 14.4075C32.1118 14.6452 32.2898 14.9846 32.3245 15.3524C32.3591 15.7202 32.2477 16.0869 32.0142 16.3731Z" fill="#142029"/>
</svg>
