<svg width="45" height="45" viewBox="0 0 45 45" fill="none" xmlns="http://www.w3.org/2000/svg">
<path d="M7.5 37.5C6.46875 37.5 5.58625 37.1331 4.8525 36.3994C4.11875 35.6656 3.75125 34.7825 3.75 33.75V11.25C3.75 10.2187 4.1175 9.33625 4.8525 8.6025C5.5875 7.86875 6.47 7.50125 7.5 7.5H37.5C38.5313 7.5 39.4144 7.8675 40.1494 8.6025C40.8844 9.3375 41.2512 10.22 41.25 11.25V33.75C41.25 34.7813 40.8831 35.6644 40.1494 36.3994C39.4156 37.1344 38.5325 37.5012 37.5 37.5H7.5ZM22.5 24.0469C22.6563 24.0469 22.8206 24.0231 22.9931 23.9756C23.1656 23.9281 23.3294 23.8581 23.4844 23.7656L36.75 15.4688C37 15.3125 37.1875 15.1175 37.3125 14.8838C37.4375 14.65 37.5 14.3919 37.5 14.1094C37.5 13.4844 37.2344 13.0156 36.7031 12.7031C36.1719 12.3906 35.625 12.4063 35.0625 12.75L22.5 20.625L9.9375 12.75C9.375 12.4063 8.82813 12.3988 8.29688 12.7275C7.76563 13.0563 7.5 13.5169 7.5 14.1094C7.5 14.4219 7.5625 14.6956 7.6875 14.9306C7.8125 15.1656 8 15.345 8.25 15.4688L21.5156 23.7656C21.6719 23.8594 21.8362 23.93 22.0087 23.9775C22.1812 24.025 22.345 24.0481 22.5 24.0469Z" fill="black"/>
</svg>
