<svg width="45" height="45" viewBox="0 0 45 45" fill="none" xmlns="http://www.w3.org/2000/svg">
<path d="M22.5 4.5C32.445 4.5 40.5 12.555 40.5 22.5C40.5 32.445 32.445 40.5 22.5 40.5C12.555 40.5 4.5 32.445 4.5 22.5C4.5 12.555 12.555 4.5 22.5 4.5ZM25.0425 25.605L25.83 11.07H19.17L19.9575 25.605H25.0425ZM24.84 33.165C25.38 32.6475 25.6725 31.9275 25.6725 31.005C25.6725 30.06 25.4025 29.34 24.8625 28.8225C24.3225 28.305 23.535 28.035 22.4775 28.035C21.42 28.035 20.6325 28.305 20.07 28.8225C19.5075 29.34 19.2375 30.06 19.2375 31.005C19.2375 31.9275 19.53 32.6475 20.0925 33.165C20.6775 33.6825 21.465 33.93 22.4775 33.93C23.49 33.93 24.2775 33.6825 24.84 33.165Z" fill="black"/>
</svg>
