<svg width="45" height="45" viewBox="0 0 45 45" fill="none" xmlns="http://www.w3.org/2000/svg">
<path fill-rule="evenodd" clip-rule="evenodd" d="M35.4788 31.5L41.4225 37.4437L39.435 39.4331L7.6125 7.61437L9.6 5.625L14.7375 10.7587C17.2223 9.84034 19.8509 9.37178 22.5 9.375C31.515 9.375 39.3225 14.715 43.125 22.5C41.3751 26.0962 38.745 29.192 35.4788 31.5ZM20.295 16.3181L28.6819 24.705C29.1003 23.5347 29.1778 22.2697 28.9053 21.057C28.6329 19.8444 28.0217 18.7341 27.1428 17.8553C26.264 16.9765 25.1537 16.3653 23.9411 16.0928C22.7285 15.8203 21.4634 15.8978 20.2931 16.3162L20.295 16.3181ZM30.2644 34.2431C27.7788 35.1611 25.1496 35.629 22.5 35.625C13.485 35.625 5.6775 30.285 1.875 22.5C3.62488 18.9038 6.25502 15.808 9.52125 13.5L16.3181 20.295C15.8997 21.4653 15.8222 22.7303 16.0947 23.943C16.3671 25.1556 16.9783 26.2659 17.8572 27.1447C18.736 28.0235 19.8463 28.6347 21.0589 28.9072C22.2715 29.1797 23.5366 29.1022 24.7069 28.6838L30.2644 34.2412V34.2431Z" fill="#46484F"/>
</svg>
