<svg width="45" height="45" viewBox="0 0 45 45" fill="none" xmlns="http://www.w3.org/2000/svg">
<path d="M5.56175 17.7539C5.32461 17.756 5.09113 17.6954 4.88499 17.5781C4.7338 17.4931 4.60108 17.3789 4.4946 17.242C4.38811 17.1051 4.30999 16.9483 4.26481 16.7809C4.21964 16.6134 4.20831 16.4387 4.23149 16.2668C4.25468 16.0949 4.31191 15.9294 4.39983 15.7799C6.09437 12.9516 11.25 6.3501 22.5 6.3501C27.3753 6.3501 31.6512 7.63066 35.2029 10.1549C38.1261 12.2265 39.7644 14.5714 40.5449 15.7008C40.6438 15.8431 40.7133 16.0039 40.7493 16.1735C40.7852 16.3431 40.7869 16.5182 40.7541 16.6885C40.7213 16.8587 40.6548 17.0207 40.5585 17.1649C40.4622 17.3091 40.338 17.4326 40.1933 17.528C39.8975 17.7236 39.5371 17.7962 39.1886 17.7306C38.8402 17.665 38.5309 17.4662 38.3265 17.1765C36.9141 15.1453 32.6075 8.96484 22.5 8.96484C12.6343 8.96484 8.17386 14.6522 6.72103 17.0912C6.60429 17.2949 6.4353 17.4637 6.23149 17.5802C6.02769 17.6967 5.79648 17.7567 5.56175 17.7539Z" fill="black"/>
<path d="M28.1681 43.5938C28.0559 43.5952 27.944 43.5825 27.835 43.5561C19.6743 41.5346 16.6272 33.3766 16.5032 33.0373L16.4839 32.9626C16.4171 32.7271 14.7797 27.1328 17.2934 23.8562C18.4456 22.3621 20.1982 21.5957 22.5123 21.5957C24.6639 21.5957 26.216 22.2646 27.283 23.6488C28.1619 24.7791 28.5135 26.173 28.8536 27.516C29.5682 30.3127 30.0841 31.7813 33.0539 31.9325C34.3582 31.9984 35.2152 31.2355 35.7012 30.586C37.0152 28.815 37.2437 25.9278 36.2531 23.379C34.9805 20.0893 30.4638 13.8868 22.5 13.8868C19.1004 13.8868 15.9768 14.9793 13.4719 17.0324C11.3986 18.7331 9.75588 21.1343 8.96486 23.6022C7.49797 28.1972 9.42189 35.42 9.44035 35.4859C9.48527 35.654 9.49608 35.8294 9.47214 36.0018C9.4482 36.1741 9.38999 36.3399 9.30095 36.4894C9.21191 36.6389 9.09384 36.7691 8.9537 36.8722C8.81356 36.9753 8.65419 37.0494 8.48498 37.0899C8.14314 37.1808 7.77929 37.1342 7.47141 36.9601C7.16354 36.7859 6.93612 36.4981 6.83791 36.1583C6.75002 35.8287 4.69514 28.1251 6.38967 22.8147C8.23537 17.0605 13.9316 11.2598 22.5027 11.2598C26.4639 11.2598 30.2063 12.6062 33.3299 15.1489C35.7487 17.1265 37.7244 19.7825 38.758 22.4377C40.072 25.8276 39.7196 29.6324 37.8624 32.118C36.6249 33.7756 34.8627 34.6422 32.9107 34.5481C27.8253 34.2933 26.9112 30.7434 26.245 28.1541C25.5595 25.498 25.1209 24.2175 22.5027 24.2175C21.0648 24.2175 20.0549 24.613 19.4265 25.4321C18.5696 26.5527 18.5028 28.3044 18.5977 29.5753C18.66 30.4607 18.8101 31.3378 19.0459 32.1936C19.2551 32.7209 21.9788 39.4006 28.5021 41.0169C28.6707 41.0568 28.8297 41.1299 28.9698 41.2318C29.1099 41.3337 29.2284 41.4625 29.3184 41.6105C29.4083 41.7586 29.4679 41.9231 29.4938 42.0945C29.5196 42.2658 29.5111 42.4406 29.4689 42.6086C29.3893 42.8923 29.219 43.1421 28.9842 43.32C28.7493 43.4979 28.4627 43.5941 28.1681 43.5938Z" fill="black"/>
<path d="M17.6933 42.9907C17.5103 42.9911 17.3292 42.9546 17.1607 42.8835C16.9922 42.8124 16.8397 42.7081 16.7124 42.5768C13.4464 39.149 11.5989 35.3161 10.9037 30.5234V30.4979C10.5135 27.3251 11.0848 22.833 13.8841 19.7445C15.9504 17.4655 18.8552 16.3071 22.5026 16.3071C26.8163 16.3071 30.2062 18.3128 32.32 22.0982C33.8537 24.8483 34.1578 27.5888 34.1657 27.7013C34.1818 27.8747 34.1635 28.0497 34.1119 28.216C34.0603 28.3824 33.9763 28.537 33.8649 28.6709C33.7534 28.8047 33.6167 28.9153 33.4624 28.9963C33.3082 29.0773 33.1395 29.127 32.966 29.1427C32.616 29.1807 32.265 29.0795 31.9889 28.8609C31.7128 28.6424 31.5337 28.324 31.4903 27.9746C31.2588 26.3303 30.7267 24.7426 29.9206 23.2909C28.2823 20.4002 25.7897 18.9307 22.493 18.9307C19.6453 18.9307 17.4173 19.7876 15.8845 21.4795C13.6749 23.9185 13.2478 27.6758 13.551 30.1613C14.1601 34.3994 15.7887 37.7709 18.6645 40.7838C18.7845 40.9087 18.8782 41.0564 18.94 41.2182C19.0018 41.38 19.0304 41.5525 19.0242 41.7256C19.0179 41.8987 18.977 42.0688 18.9037 42.2257C18.8304 42.3826 18.7263 42.5233 18.5977 42.6392C18.3498 42.8638 18.0278 42.989 17.6933 42.9907Z" fill="black"/>
<path d="M32.7393 39.215C29.8828 39.215 27.4544 38.424 25.5111 36.8517C21.607 33.7061 21.1693 28.5829 21.15 28.3667C21.1225 28.0118 21.2371 27.6605 21.4686 27.3901C21.7001 27.1197 22.0295 26.9524 22.3844 26.9249C22.7393 26.8973 23.0906 27.0119 23.361 27.2434C23.6314 27.4749 23.7988 27.8044 23.8263 28.1593C23.8359 28.2349 24.2262 32.4255 27.2356 34.839C29.0162 36.261 31.3963 36.8253 34.3292 36.4957C34.6797 36.4532 35.0329 36.5512 35.3113 36.7682C35.5898 36.9853 35.7711 37.3038 35.8154 37.6541C35.8346 37.8271 35.8192 38.0023 35.77 38.1693C35.7208 38.3363 35.6388 38.4918 35.5288 38.6268C35.4189 38.7618 35.2831 38.8736 35.1295 38.9555C34.9759 39.0375 34.8075 39.0881 34.6342 39.1043C34.0052 39.1777 33.3725 39.2147 32.7393 39.215ZM34.9963 4.28818C33.8818 3.56309 29.9303 1.40625 22.5 1.40625C14.7006 1.40625 10.7394 3.78896 9.8631 4.39453C9.80523 4.43006 9.75105 4.47128 9.70138 4.51758C9.69614 4.52265 9.68931 4.52575 9.68204 4.52637C9.54211 4.64854 9.42984 4.79914 9.3527 4.96812C9.27555 5.1371 9.23532 5.32059 9.23468 5.50635C9.23708 5.68048 9.27383 5.85242 9.3428 6.01232C9.41177 6.17222 9.51162 6.31694 9.63662 6.43819C9.76162 6.55944 9.90932 6.65482 10.0713 6.71889C10.2332 6.78295 10.4062 6.81443 10.5803 6.81152C10.8594 6.81134 11.1317 6.72577 11.3608 6.56631C11.3985 6.53818 14.8078 4.0333 22.5026 4.0333C30.1975 4.0333 33.6252 6.52939 33.6621 6.54785C33.8961 6.72138 34.1803 6.81394 34.4716 6.81152C34.6459 6.8142 34.8189 6.78243 34.9809 6.71804C35.1428 6.65365 35.2905 6.55791 35.4154 6.43632C35.5402 6.31472 35.6398 6.16967 35.7085 6.00947C35.7771 5.84928 35.8135 5.67711 35.8154 5.50283C35.8155 5.24179 35.7376 4.98667 35.5916 4.77024C35.4457 4.55381 35.2383 4.38594 34.9963 4.28818Z" fill="black"/>
</svg>
