<svg width="45" height="45" viewBox="0 0 45 45" fill="none" xmlns="http://www.w3.org/2000/svg">
<path fill-rule="evenodd" clip-rule="evenodd" d="M13.5937 12.1875C14.0246 12.1875 14.4513 12.1026 14.8494 11.9377C15.2475 11.7728 15.6093 11.5311 15.9139 11.2264C16.2186 10.9218 16.4603 10.56 16.6252 10.1619C16.7901 9.76383 16.875 9.33715 16.875 8.90625C16.875 8.47535 16.7901 8.04867 16.6252 7.65057C16.4603 7.25247 16.2186 6.89075 15.9139 6.58606C15.6093 6.28136 15.2475 6.03967 14.8494 5.87477C14.4513 5.70987 14.0246 5.625 13.5937 5.625C12.7235 5.625 11.8889 5.9707 11.2736 6.58606C10.6582 7.20141 10.3125 8.03601 10.3125 8.90625C10.3125 9.77649 10.6582 10.6111 11.2736 11.2264C11.8889 11.8418 12.7235 12.1875 13.5937 12.1875ZM18.42 18.75C18.4669 19.08 18.5081 19.4334 18.5437 19.8019C18.75 21.9066 18.75 24.1875 18.75 24.8437C18.75 25.2167 18.8982 25.5744 19.1619 25.8381C19.4256 26.1018 19.7833 26.25 20.1562 26.25C20.5292 26.25 20.8869 26.1018 21.1506 25.8381C21.4143 25.5744 21.5625 25.2167 21.5625 24.8437V24.8372C21.5625 24.1744 21.5625 21.7772 21.3431 19.5291C21.2353 18.4134 21.0656 17.2509 20.7834 16.3359C20.6456 15.8869 20.4506 15.3966 20.1553 14.9897C19.8581 14.5828 19.3022 14.0625 18.4584 14.0625H8.72813C7.88344 14.0625 7.3275 14.5828 7.03125 14.9906C6.735 15.3966 6.54 15.8869 6.40312 16.3359C6.12094 17.2509 5.95125 18.4144 5.8425 19.5291C5.625 21.7772 5.625 24.1744 5.625 24.8372V24.8437C5.625 25.2167 5.77316 25.5744 6.03688 25.8381C6.3006 26.1018 6.65829 26.25 7.03125 26.25C7.40421 26.25 7.7619 26.1018 8.02562 25.8381C8.28934 25.5744 8.4375 25.2167 8.4375 24.8437C8.4375 24.1875 8.4375 21.9066 8.64375 19.8019C8.67844 19.4334 8.71969 19.08 8.76656 18.75H9.375V37.9687C9.37557 38.3316 9.51636 38.6801 9.76793 38.9416C10.0195 39.203 10.3624 39.3571 10.7249 39.3717C11.0875 39.3862 11.4416 39.26 11.7133 39.0195C11.985 38.7791 12.1532 38.4429 12.1828 38.0812L12.9797 28.125H14.2078L15.0047 38.0812C15.0343 38.4429 15.2025 38.7791 15.4742 39.0195C15.7459 39.26 16.1 39.3862 16.4625 39.3717C16.8251 39.3571 17.168 39.203 17.4196 38.9416C17.6711 38.6801 17.8119 38.3316 17.8125 37.9687V18.75H18.42ZM34.6875 8.90625C34.6875 9.77649 34.3418 10.6111 33.7264 11.2264C33.1111 11.8418 32.2765 12.1875 31.4062 12.1875C30.536 12.1875 29.7014 11.8418 29.0861 11.2264C28.4707 10.6111 28.125 9.77649 28.125 8.90625C28.125 8.03601 28.4707 7.20141 29.0861 6.58606C29.7014 5.9707 30.536 5.625 31.4062 5.625C32.2765 5.625 33.1111 5.9707 33.7264 6.58606C34.3418 7.20141 34.6875 8.03601 34.6875 8.90625ZM35.5003 14.1056C35.3878 14.0774 35.2722 14.0633 35.1562 14.0634H27.6544C27.5387 14.0634 27.425 14.0778 27.3131 14.1066C26.2687 14.3691 25.5666 15.0056 25.1259 15.8737C24.7387 16.635 24.5503 17.58 24.3947 18.5203L23.4572 24.1453C23.4244 24.3285 23.4283 24.5163 23.4687 24.698C23.5091 24.8796 23.5851 25.0514 23.6924 25.2035C23.7996 25.3556 23.936 25.4848 24.0936 25.5838C24.2512 25.6827 24.4268 25.7494 24.6104 25.78C24.7939 25.8106 24.9817 25.8044 25.1629 25.7619C25.344 25.7194 25.5149 25.6413 25.6657 25.5323C25.8164 25.4232 25.9441 25.2853 26.0412 25.1266C26.1382 24.9678 26.2028 24.7914 26.2312 24.6075L27.1687 18.9825C27.255 18.4603 27.3356 18.0619 27.4172 17.7544L27.6562 20.625C27.6562 22.3781 26.0681 30.3825 25.5066 33.1594C25.4814 33.2828 25.4816 33.4101 25.5071 33.5334C25.5327 33.6567 25.5831 33.7736 25.6553 33.8768C25.7275 33.9801 25.8199 34.0675 25.927 34.1339C26.0341 34.2002 26.1536 34.2441 26.2781 34.2628C30.1425 34.8384 32.67 34.8206 36.5334 34.2591C36.6581 34.241 36.7778 34.1977 36.8853 34.1319C36.9927 34.0661 37.0856 33.9791 37.1583 33.8762C37.231 33.7733 37.282 33.6567 37.3082 33.5335C37.3344 33.4102 37.3352 33.2829 37.3106 33.1594C36.7528 30.3375 35.1562 22.1306 35.1562 20.625L35.3953 17.7544C35.4769 18.0619 35.5575 18.4594 35.6437 18.9825L36.5812 24.6075C36.6427 24.9755 36.8477 25.304 37.1514 25.5208C37.3017 25.6281 37.4717 25.7048 37.6517 25.7464C37.8317 25.7881 38.0181 25.7938 38.2003 25.7634C38.3825 25.733 38.557 25.667 38.7137 25.5692C38.8704 25.4714 39.0063 25.3437 39.1136 25.1933C39.2209 25.043 39.2976 24.8729 39.3392 24.693C39.3809 24.513 39.3867 24.3266 39.3562 24.1444L38.4187 18.5194C38.2622 17.58 38.0737 16.6341 37.6875 15.8737C37.245 15.0047 36.5447 14.3691 35.5003 14.1056ZM28.1306 38.5537L27.7781 35.7291C28.7719 35.8509 29.7159 35.9306 30.6459 35.9662L29.9709 38.6653C29.9176 38.8773 29.7919 39.064 29.6155 39.1932C29.4391 39.3223 29.2232 39.3857 29.005 39.3725C28.7868 39.3593 28.58 39.2702 28.4206 39.1207C28.2611 38.9712 28.1579 38.7706 28.1306 38.5537ZM32.8406 38.6644L32.1713 35.9859C33.1232 35.9729 34.0741 35.9185 35.0212 35.8228L34.68 38.5537C34.6526 38.7706 34.5502 38.9711 34.3907 39.1204C34.2311 39.2698 34.0244 39.3588 33.8062 39.3719C33.588 39.385 33.3721 39.3215 33.1958 39.1923C33.0195 39.0631 32.8938 38.8764 32.8406 38.6644Z" fill="black"/>
</svg>
