<svg width="45" height="45" viewBox="0 0 45 45" fill="none" xmlns="http://www.w3.org/2000/svg">
<path d="M22.5 7.87598L1.97632 15.5726L22.5 25.8344L32.2752 20.9468L23.105 18.1431C22.9161 18.2337 22.7094 18.2809 22.5 18.2813C22.127 18.2813 21.7694 18.1332 21.5056 17.8695C21.2419 17.6057 21.0938 17.2481 21.0938 16.8751C21.0938 16.5021 21.2419 16.1445 21.5056 15.8807C21.7694 15.617 22.127 15.4688 22.5 15.4688L22.2675 16.2249L23.8967 16.7261L23.8974 16.731L26.3015 17.4662L39.9902 21.6779V22.7454C39.8009 22.8742 39.6459 23.0473 39.5387 23.2496C39.4315 23.452 39.3753 23.6774 39.375 23.9064C39.3753 24.1407 39.434 24.3711 39.546 24.5769C39.6579 24.7827 39.8195 24.9572 40.016 25.0847C39.3759 27.5039 39.375 32.9927 39.375 35.1563C40.7813 36.07 40.7813 36.1034 42.1875 35.1563C42.1875 32.993 42.1868 27.5052 41.5468 25.0855C41.7434 24.9579 41.905 24.7832 42.0169 24.5773C42.1288 24.3713 42.1874 24.1407 42.1875 23.9063C42.1875 23.6771 42.1314 23.4513 42.0242 23.2487C41.917 23.0461 41.7618 22.8728 41.5723 22.7438V20.5096L36.3582 18.9054L43.0237 15.5726L22.5 7.87598ZM10.5137 21.8849L9.36036 28.8054C11.6609 29.1062 14.4128 30.4434 16.9427 32.0245C18.3815 32.9238 19.7291 33.9109 20.8236 34.8687C21.4926 35.454 22.052 36.0157 22.5 36.5682C22.948 36.0156 23.5074 35.454 24.1764 34.8687C25.2709 33.9109 26.6185 32.9238 28.0573 32.0245C30.5872 30.4434 33.3391 29.1062 35.6397 28.8054L34.4861 21.8849H33.9368L22.5 27.6033L11.0631 21.8849H10.5137Z" fill="black"/>
</svg>
