<svg width="45" height="45" viewBox="0 0 45 45" fill="none" xmlns="http://www.w3.org/2000/svg">
<path d="M40.3125 0H4.6875C3.4443 0 2.25201 0.49386 1.37294 1.37294C0.49386 2.25201 0 3.4443 0 4.6875L0 40.3125C0 40.9281 0.121246 41.5376 0.356815 42.1063C0.592384 42.675 0.937662 43.1918 1.37294 43.6271C1.80821 44.0623 2.32496 44.4076 2.89367 44.6432C3.46239 44.8788 4.07193 45 4.6875 45H40.3125C40.9281 45 41.5376 44.8788 42.1063 44.6432C42.675 44.4076 43.1918 44.0623 43.6271 43.6271C44.0623 43.1918 44.4076 42.675 44.6432 42.1063C44.8788 41.5376 45 40.9281 45 40.3125V4.6875C45 4.07193 44.8788 3.46239 44.6432 2.89367C44.4076 2.32496 44.0623 1.80821 43.6271 1.37294C43.1918 0.937662 42.675 0.592384 42.1063 0.356815C41.5376 0.121246 40.9281 0 40.3125 0ZM34.6875 17.8125H26.25C25.7527 17.8125 25.2758 17.615 24.9242 17.2633C24.5725 16.9117 24.375 16.4348 24.375 15.9375C24.375 15.4402 24.5725 14.9633 24.9242 14.6117C25.2758 14.26 25.7527 14.0625 26.25 14.0625H34.6875C35.1848 14.0625 35.6617 14.26 36.0133 14.6117C36.365 14.9633 36.5625 15.4402 36.5625 15.9375C36.5625 16.4348 36.365 16.9117 36.0133 17.2633C35.6617 17.615 35.1848 17.8125 34.6875 17.8125ZM36.5625 32.8125C36.5625 33.3098 36.365 33.7867 36.0133 34.1383C35.6617 34.49 35.1848 34.6875 34.6875 34.6875H26.25C25.7527 34.6875 25.2758 34.49 24.9242 34.1383C24.5725 33.7867 24.375 33.3098 24.375 32.8125C24.375 32.3152 24.5725 31.8383 24.9242 31.4867C25.2758 31.135 25.7527 30.9375 26.25 30.9375H34.6875C35.1848 30.9375 35.6617 31.135 36.0133 31.4867C36.365 31.8383 36.5625 32.3152 36.5625 32.8125ZM21.1875 10.5L15.5625 18C15.4016 18.216 15.1961 18.3948 14.9599 18.5242C14.7237 18.6536 14.4624 18.7306 14.1938 18.75C13.9252 18.7697 13.6556 18.7313 13.4033 18.6375C13.1509 18.5437 12.9217 18.3966 12.7312 18.2062L9.91875 15.3938C9.74393 15.2189 9.60525 15.0114 9.51064 14.783C9.41603 14.5546 9.36733 14.3097 9.36733 14.0625C9.36733 13.8153 9.41603 13.5704 9.51064 13.342C9.60525 13.1136 9.74393 12.9061 9.91875 12.7312C10.0936 12.5564 10.3011 12.4178 10.5295 12.3231C10.7579 12.2285 11.0028 12.1798 11.25 12.1798C11.4972 12.1798 11.7421 12.2285 11.9705 12.3231C12.1989 12.4178 12.4064 12.5564 12.5813 12.7312L13.8562 14.025L18.1875 8.25C18.4859 7.85218 18.9301 7.58917 19.4223 7.51884C19.9146 7.44852 20.4147 7.57663 20.8125 7.875C21.2103 8.17337 21.4733 8.61755 21.5437 9.10983C21.614 9.60212 21.4859 10.1022 21.1875 10.5ZM21.1875 29.25L15.5625 36.75C15.4018 36.9662 15.1963 37.1452 14.9602 37.2748C14.7241 37.4044 14.4628 37.4817 14.1941 37.5013C13.9254 37.5208 13.6557 37.4823 13.4033 37.3882C13.1508 37.2942 12.9216 37.1468 12.7312 36.9562L9.91875 34.1437C9.56568 33.7907 9.36733 33.3118 9.36733 32.8125C9.36733 32.3132 9.56568 31.8343 9.91875 31.4813C10.2718 31.1282 10.7507 30.9298 11.25 30.9298C11.7493 30.9298 12.2282 31.1282 12.5813 31.4813L13.8562 32.775L18.1875 27C18.4859 26.6022 18.9301 26.3392 19.4223 26.2688C19.9146 26.1985 20.4147 26.3266 20.8125 26.625C21.2103 26.9234 21.4733 27.3676 21.5437 27.8598C21.614 28.3521 21.4859 28.8522 21.1875 29.25Z" fill="black"/>
</svg>
