<svg width="45" height="45" viewBox="0 0 45 45" fill="none" xmlns="http://www.w3.org/2000/svg">
<path d="M9.375 41.25C8.34375 41.25 7.46125 40.8831 6.7275 40.1494C5.99375 39.4156 5.62625 38.5325 5.625 37.5V11.25C5.625 10.2188 5.9925 9.33625 6.7275 8.6025C7.4625 7.86875 8.345 7.50125 9.375 7.5H11.25V3.75H15V7.5H30V3.75H33.75V7.5H35.625C36.6562 7.5 37.5394 7.8675 38.2744 8.6025C39.0094 9.3375 39.3763 10.22 39.375 11.25V20.625H35.625V18.75H9.375V37.5H22.5V41.25H9.375ZM26.25 41.25V35.4844L36.6094 25.1719C36.8906 24.8906 37.2031 24.6875 37.5469 24.5625C37.8906 24.4375 38.2344 24.375 38.5781 24.375C38.9531 24.375 39.3125 24.4456 39.6562 24.5869C40 24.7281 40.3125 24.9387 40.5938 25.2188L42.3281 26.9531C42.5781 27.2344 42.7738 27.5469 42.915 27.8906C43.0563 28.2344 43.1263 28.5781 43.125 28.9219C43.1237 29.2656 43.0612 29.6175 42.9375 29.9775C42.8137 30.3375 42.6106 30.6575 42.3281 30.9375L32.0156 41.25H26.25ZM38.5781 30.75L40.3125 28.9219L38.5781 27.1875L36.7969 28.9688L38.5781 30.75Z" fill="black"/>
</svg>
