<svg width="45" height="45" viewBox="0 0 45 45" fill="none" xmlns="http://www.w3.org/2000/svg">
<path fill-rule="evenodd" clip-rule="evenodd" d="M0 10.5C0 9.30653 0.474106 8.16193 1.31802 7.31802C2.16193 6.47411 3.30653 6 4.5 6H40.5C41.6935 6 42.8381 6.47411 43.682 7.31802C44.5259 8.16193 45 9.30653 45 10.5V34.5C45 35.6935 44.5259 36.8381 43.682 37.682C42.8381 38.5259 41.6935 39 40.5 39H4.5C3.30653 39 2.16193 38.5259 1.31802 37.682C0.474106 36.8381 0 35.6935 0 34.5L0 10.5ZM9 18C9 16.4087 9.63214 14.8826 10.7574 13.7574C11.8826 12.6321 13.4087 12 15 12C16.5913 12 18.1174 12.6321 19.2426 13.7574C20.3679 14.8826 21 16.4087 21 18C21 19.5913 20.3679 21.1174 19.2426 22.2426C18.1174 23.3679 16.5913 24 15 24C13.4087 24 11.8826 23.3679 10.7574 22.2426C9.63214 21.1174 9 19.5913 9 18ZM36 18H27V15H36V18ZM36 27H27V24H36V27ZM15 27C13.3695 27.001 11.7714 27.4555 10.3844 28.3128C8.99736 29.17 7.87612 30.3961 7.146 31.854L6.156 33.828C6.04129 34.0569 5.98709 34.3114 5.99855 34.5672C6.01002 34.823 6.08677 35.0716 6.2215 35.2893C6.35623 35.507 6.54445 35.6866 6.76825 35.8111C6.99204 35.9355 7.24395 36.0005 7.5 36H22.5C22.7558 36 23.0073 35.9346 23.2307 35.81C23.4541 35.6853 23.6419 35.5057 23.7763 35.288C23.9107 35.0704 23.9872 34.822 23.9985 34.5664C24.0098 34.3109 23.9556 34.0567 23.841 33.828L22.854 31.854C22.1239 30.3961 21.0026 29.17 19.6156 28.3128C18.2286 27.4555 16.6305 27.001 15 27Z" fill="black"/>
</svg>
