<svg width="45" height="45" viewBox="0 0 45 45" fill="none" xmlns="http://www.w3.org/2000/svg">
<path d="M16.4063 18.75C16.4062 17.1338 17.0483 15.5839 18.1911 14.4411C19.3339 13.2983 20.8838 12.6563 22.5 12.6562C24.1162 12.6563 25.6661 13.2983 26.8089 14.4411C27.9517 15.5839 28.5937 17.1338 28.5938 18.75C28.5937 20.3662 27.9517 21.9161 26.8089 23.0589C25.6661 24.2017 24.1162 24.8438 22.5 24.8438C20.8838 24.8438 19.3339 24.2017 18.1911 23.0589C17.0483 21.9161 16.4063 20.3662 16.4063 18.75Z" fill="black"/>
<path fill-rule="evenodd" clip-rule="evenodd" d="M7.07624 16.6444C7.38812 12.8752 9.10541 9.36088 11.8874 6.79872C14.6694 4.23656 18.3129 2.81373 22.095 2.8125H22.905C26.6871 2.81373 30.3305 4.23656 33.1126 6.79872C35.8946 9.36088 37.6119 12.8752 37.9237 16.6444C38.2698 20.8526 36.9706 25.0312 34.2994 28.3012L25.3125 39.2925C24.9719 39.7094 24.5428 40.0454 24.0564 40.2761C23.57 40.5068 23.0383 40.6265 22.5 40.6265C21.9616 40.6265 21.43 40.5068 20.9436 40.2761C20.4572 40.0454 20.0281 39.7094 19.6875 39.2925L10.7025 28.3012C8.03054 25.0314 6.73067 20.8529 7.07624 16.6444ZM22.5 9.84375C20.1379 9.84375 17.8726 10.7821 16.2023 12.4523C14.5321 14.1226 13.5937 16.3879 13.5937 18.75C13.5937 21.1121 14.5321 23.3774 16.2023 25.0477C17.8726 26.7179 20.1379 27.6562 22.5 27.6562C24.8621 27.6562 27.1274 26.7179 28.7977 25.0477C30.4679 23.3774 31.4062 21.1121 31.4062 18.75C31.4062 16.3879 30.4679 14.1226 28.7977 12.4523C27.1274 10.7821 24.8621 9.84375 22.5 9.84375Z" fill="black"/>
</svg>
