<svg width="45" height="45" viewBox="0 0 45 45" fill="none" xmlns="http://www.w3.org/2000/svg">
<path d="M22.5 3.75C17.3306 3.75 13.125 7.95563 13.125 13.125V18.75H11.25C10.2554 18.75 9.30161 19.1451 8.59835 19.8484C7.89509 20.5516 7.5 21.5054 7.5 22.5V37.5C7.5 38.4946 7.89509 39.4484 8.59835 40.1516C9.30161 40.8549 10.2554 41.25 11.25 41.25H33.75C34.7446 41.25 35.6984 40.8549 36.4016 40.1516C37.1049 39.4484 37.5 38.4946 37.5 37.5V22.5C37.5 21.5054 37.1049 20.5516 36.4016 19.8484C35.6984 19.1451 34.7446 18.75 33.75 18.75H31.875V13.125C31.875 7.95563 27.6694 3.75 22.5 3.75ZM16.875 13.125C16.875 10.0237 19.3987 7.5 22.5 7.5C25.6013 7.5 28.125 10.0237 28.125 13.125V18.75H16.875V13.125ZM24.375 33.2306V37.5H20.625V33.2306C19.9695 32.8552 19.4431 32.29 19.1153 31.6094C18.7875 30.9288 18.6737 30.1649 18.7888 29.4183C18.9039 28.6717 19.2426 27.9776 19.7602 27.4274C20.2778 26.8772 20.95 26.4967 21.6881 26.3362C22.2364 26.2147 22.8051 26.2178 23.352 26.3454C23.899 26.473 24.4103 26.7218 24.8482 27.0735C25.2861 27.4252 25.6394 27.8708 25.882 28.3773C26.1246 28.8838 26.2504 29.4384 26.25 30C26.2489 30.6558 26.075 31.2997 25.7459 31.8668C25.4167 32.434 24.9439 32.9044 24.375 33.2306Z" fill="#46484F"/>
</svg>
