<svg width="45" height="45" viewBox="0 0 45 45" fill="none" xmlns="http://www.w3.org/2000/svg">
<path fill-rule="evenodd" clip-rule="evenodd" d="M33.75 18.2813C34.8689 18.2813 35.9419 17.8368 36.7331 17.0456C37.5243 16.2544 37.9687 15.1814 37.9688 14.0625C37.9687 12.9436 37.5243 11.8706 36.7331 11.0794C35.9419 10.2882 34.8689 9.84375 33.75 9.84375C32.6311 9.84375 31.5581 10.2882 30.7669 11.0794C29.9757 11.8706 29.5313 12.9436 29.5312 14.0625C29.5313 15.1814 29.9757 16.2544 30.7669 17.0456C31.5581 17.8368 32.6311 18.2813 33.75 18.2813ZM33.75 22.5C35.3281 22.4999 36.8745 22.0572 38.2135 21.2222C39.5526 20.3873 40.6307 19.1935 41.3254 17.7766C42.02 16.3596 42.3033 14.7762 42.1432 13.2063C41.9831 11.6364 41.3859 10.1428 40.4195 8.89532C39.453 7.64779 38.1561 6.69629 36.6761 6.14889C35.196 5.60149 33.592 5.48014 32.0464 5.79861C30.5009 6.11709 29.0755 6.86263 27.9324 7.95056C26.7893 9.03848 25.9742 10.4252 25.5797 11.9531H4.92188C4.36243 11.9531 3.82591 12.1754 3.43032 12.5709C3.03474 12.9665 2.8125 13.5031 2.8125 14.0625C2.8125 14.6219 3.03474 15.1585 3.43032 15.5541C3.82591 15.9496 4.36243 16.1719 4.92188 16.1719H25.5797C26.0474 17.9832 27.1037 19.5877 28.5827 20.7332C30.0616 21.8786 31.8793 22.5002 33.75 22.5ZM15.4688 30.9375C15.4688 32.0564 15.0243 33.1294 14.2331 33.9206C13.4419 34.7118 12.3689 35.1563 11.25 35.1563C10.1311 35.1563 9.05806 34.7118 8.26689 33.9206C7.47572 33.1294 7.03125 32.0564 7.03125 30.9375C7.03125 29.8186 7.47572 28.7456 8.26689 27.9544C9.05806 27.1632 10.1311 26.7188 11.25 26.7188C12.3689 26.7188 13.4419 27.1632 14.2331 27.9544C15.0243 28.7456 15.4687 29.8186 15.4688 30.9375ZM19.4203 33.0469C18.9031 35.0316 17.6808 36.7601 15.982 37.9093C14.2832 39.0586 12.224 39.5499 10.1893 39.2914C8.15464 39.033 6.28367 38.0425 4.92607 36.5051C3.56847 34.9677 2.81715 32.9885 2.8125 30.9375C2.8118 28.8834 3.56048 26.8995 4.91812 25.358C6.27576 23.8165 8.14912 22.8232 10.1869 22.5644C12.2246 22.3056 14.2868 22.799 15.9867 23.9522C17.6866 25.1054 18.9075 26.839 19.4203 28.8281H40.0781C40.6376 28.8281 41.1741 29.0504 41.5697 29.446C41.9653 29.8415 42.1875 30.3781 42.1875 30.9375C42.1875 31.4969 41.9653 32.0335 41.5697 32.4291C41.1741 32.8246 40.6376 33.0469 40.0781 33.0469H19.4203Z" fill="black"/>
</svg>
