<svg width="45" height="45" viewBox="0 0 45 45" fill="none" xmlns="http://www.w3.org/2000/svg">
<path d="M33.75 5.625H11.25V13.125H33.75M35.625 22.5C35.1277 22.5 34.6508 22.3025 34.2992 21.9508C33.9475 21.5992 33.75 21.1223 33.75 20.625C33.75 20.1277 33.9475 19.6508 34.2992 19.2992C34.6508 18.9475 35.1277 18.75 35.625 18.75C36.1223 18.75 36.5992 18.9475 36.9508 19.2992C37.3025 19.6508 37.5 20.1277 37.5 20.625C37.5 21.1223 37.3025 21.5992 36.9508 21.9508C36.5992 22.3025 36.1223 22.5 35.625 22.5ZM30 35.625H15V26.25H30M35.625 15H9.375C7.88316 15 6.45242 15.5926 5.39752 16.6475C4.34263 17.7024 3.75 19.1332 3.75 20.625V31.875H11.25V39.375H33.75V31.875H41.25V20.625C41.25 19.1332 40.6574 17.7024 39.6025 16.6475C38.5476 15.5926 37.1168 15 35.625 15Z" fill="black"/>
</svg>
