<svg width="24" height="24" viewBox="0 0 45 45  " fill="none" xmlns="http://www.w3.org/2000/svg">
<path d="M27.5756 10.5675L38.1825 21.1744C38.534 21.526 38.7315 22.0028 38.7315 22.5C38.7315 22.9972 38.534 23.474 38.1825 23.8257L27.5756 34.4325C27.222 34.7741 26.7484 34.9631 26.2567 34.9588C25.7651 34.9545 25.2949 34.7573 24.9472 34.4097C24.5996 34.0621 24.4024 33.5918 24.3981 33.1002C24.3938 32.6085 24.5828 32.1349 24.9244 31.7813L32.3306 24.375H7.5C7.00272 24.375 6.52581 24.1775 6.17417 23.8259C5.82254 23.4742 5.625 22.9973 5.625 22.5C5.625 22.0028 5.82254 21.5258 6.17417 21.1742C6.52581 20.8226 7.00272 20.625 7.5 20.625H32.3306L24.9244 13.2188C24.7453 13.0458 24.6024 12.8389 24.5042 12.6102C24.4059 12.3814 24.3542 12.1354 24.352 11.8864C24.3499 11.6374 24.3973 11.3905 24.4916 11.1601C24.5859 10.9297 24.7251 10.7203 24.9011 10.5443C25.0772 10.3682 25.2865 10.229 25.517 10.1347C25.7474 10.0405 25.9943 9.99302 26.2433 9.99519C26.4922 9.99735 26.7382 10.0491 26.967 10.1473C27.1958 10.2456 27.4027 10.3885 27.5756 10.5675Z" fill="white"/>
</svg>
