<svg width="45" height="45" viewBox="0 0 45 45" fill="none" xmlns="http://www.w3.org/2000/svg">
<path d="M25.3125 16.875C25.3125 16.3777 25.51 15.9008 25.8616 15.5492C26.2133 15.1975 26.6902 15 27.1875 15H33.75C34.2473 15 34.7242 15.1975 35.0758 15.5492C35.4274 15.9008 35.625 16.3777 35.625 16.875V23.4375C35.625 23.9348 35.4274 24.4117 35.0758 24.7633C34.7242 25.115 34.2473 25.3125 33.75 25.3125C33.2527 25.3125 32.7758 25.115 32.4241 24.7633C32.0725 24.4117 31.875 23.9348 31.875 23.4375V21.4012L23.8256 29.4506C23.474 29.8021 22.9972 29.9996 22.5 29.9996C22.0028 29.9996 21.526 29.8021 21.1743 29.4506L16.875 25.1512L12.5756 29.4506C12.222 29.7922 11.7483 29.9812 11.2567 29.9769C10.7651 29.9726 10.2948 29.7754 9.94719 29.4278C9.59955 29.0801 9.40235 28.6099 9.39808 28.1183C9.39381 27.6266 9.5828 27.153 9.92435 26.7994L15.5493 21.1744C15.901 20.8229 16.3778 20.6254 16.875 20.6254C17.3722 20.6254 17.849 20.8229 18.2006 21.1744L22.5 25.4738L29.2237 18.75H27.1875C26.6902 18.75 26.2133 18.5525 25.8616 18.2008C25.51 17.8492 25.3125 17.3723 25.3125 16.875Z" fill="black"/>
</svg>
