<svg width="45" height="45" viewBox="0 0 45 45" fill="none" xmlns="http://www.w3.org/2000/svg">
<path d="M22.5219 17.165C21.208 17.165 19.9775 17.6748 19.0459 18.6064C18.1186 19.5381 17.6045 20.7686 17.6045 22.0825C17.6045 23.3965 18.1186 24.627 19.0459 25.5586C19.9775 26.4858 21.208 27 22.5219 27C23.8359 27 25.0664 26.4858 25.998 25.5586C26.9253 24.627 27.4394 23.3965 27.4394 22.0825C27.4394 20.7686 26.9253 19.5381 25.998 18.6064C25.543 18.1479 25.0014 17.7844 24.4046 17.5369C23.8079 17.2895 23.1679 17.1631 22.5219 17.165ZM40.6406 27.5142L37.7666 25.0576C37.9028 24.2227 37.9731 23.3701 37.9731 22.522C37.9731 21.6738 37.9028 20.8169 37.7666 19.9863L40.6406 17.5298C40.8577 17.3439 41.0131 17.0964 41.0861 16.8201C41.1591 16.5437 41.1463 16.2518 41.0493 15.9829L41.0097 15.8687C40.2188 13.6568 39.0336 11.6066 37.5117 9.81738L37.4326 9.7251C37.2478 9.5078 37.0015 9.35159 36.7261 9.27706C36.4508 9.20254 36.1593 9.21319 35.8901 9.30762L32.3218 10.5776C31.0034 9.49658 29.5356 8.64404 27.9448 8.05078L27.2549 4.31982C27.2028 4.03876 27.0665 3.78019 26.8639 3.57846C26.6614 3.37673 26.4023 3.24139 26.1211 3.19043L26.0024 3.16846C23.7173 2.75537 21.3091 2.75537 19.0239 3.16846L18.9052 3.19043C18.624 3.24139 18.3649 3.37673 18.1624 3.57846C17.9599 3.78019 17.8235 4.03876 17.7715 4.31982L17.0771 8.06836C15.5014 8.66632 14.0334 9.5168 12.7309 10.5864L9.13621 9.30762C8.86711 9.21244 8.57542 9.2014 8.2999 9.27598C8.02439 9.35055 7.77808 9.50719 7.59373 9.7251L7.51462 9.81738C5.99538 11.6085 4.81052 13.6582 4.01658 15.8687L3.97703 15.9829C3.77927 16.5322 3.94187 17.1475 4.38572 17.5298L7.2949 20.0127C7.15867 20.8389 7.09275 21.6826 7.09275 22.5176C7.09275 23.3613 7.15867 24.2051 7.2949 25.0225L4.39451 27.5054C4.1774 27.6912 4.02201 27.9388 3.94901 28.2151C3.876 28.4914 3.88884 28.7834 3.98582 29.0522L4.02537 29.1665C4.82078 31.377 5.99412 33.4204 7.52341 35.2178L7.60251 35.3101C7.78732 35.5274 8.03363 35.6836 8.30899 35.7581C8.58434 35.8326 8.87582 35.822 9.145 35.7275L12.7397 34.4487C14.0493 35.5254 15.5083 36.3779 17.0859 36.9668L17.7802 40.7153C17.8323 40.9964 17.9686 41.255 18.1712 41.4567C18.3737 41.6584 18.6328 41.7938 18.914 41.8447L19.0327 41.8667C21.3403 42.282 23.7036 42.282 26.0112 41.8667L26.1299 41.8447C26.4111 41.7938 26.6702 41.6584 26.8727 41.4567C27.0753 41.255 27.2116 40.9964 27.2636 40.7153L27.9536 36.9844C29.5444 36.3867 31.0122 35.5386 32.3305 34.4575L35.8989 35.7275C36.168 35.8227 36.4597 35.8338 36.7352 35.7592C37.0107 35.6846 37.257 35.528 37.4414 35.3101L37.5205 35.2178C39.0498 33.4116 40.2231 31.377 41.0185 29.1665L41.0581 29.0522C41.247 28.5073 41.0844 27.8965 40.6406 27.5142ZM22.5219 29.8081C18.2549 29.8081 14.7964 26.3496 14.7964 22.0825C14.7964 17.8154 18.2549 14.3569 22.5219 14.3569C26.789 14.3569 30.2475 17.8154 30.2475 22.0825C30.2475 26.3496 26.789 29.8081 22.5219 29.8081Z" fill="black"/>
</svg>
